<svg width="1073" height="1073" viewBox="0 0 1073 1073" fill="none" xmlns="http://www.w3.org/2000/svg">
<g clip-path="url(#clip0_19_7)">
<rect width="1073" height="1073" rx="40" fill="white"/>
<rect width="1073" height="1073" rx="40" fill="white"/>
<path d="M358.442 503.54L316.255 508.142C315.061 503.881 312.973 499.875 309.99 496.125C307.093 492.375 303.172 489.349 298.229 487.048C293.286 484.747 287.235 483.597 280.076 483.597C270.445 483.597 262.348 485.685 255.786 489.861C249.309 494.037 246.113 499.449 246.198 506.097C246.113 511.807 248.201 516.452 252.462 520.031C256.809 523.611 263.968 526.551 273.939 528.852L307.434 536.011C326.013 540.017 339.82 546.366 348.854 555.06C357.973 563.753 362.576 575.131 362.661 589.193C362.576 601.551 358.953 612.46 351.794 621.92C344.721 631.295 334.877 638.625 322.263 643.909C309.65 649.193 295.161 651.835 278.797 651.835C254.763 651.835 235.417 646.807 220.757 636.75C206.098 626.608 197.363 612.503 194.55 594.435L239.678 590.088C241.723 598.952 246.07 605.642 252.718 610.159C259.365 614.676 268.016 616.935 278.669 616.935C289.664 616.935 298.485 614.676 305.132 610.159C311.865 605.642 315.232 600.06 315.232 593.412C315.232 587.787 313.059 583.142 308.712 579.477C304.451 575.812 297.803 573 288.769 571.04L255.275 564.009C236.439 560.088 222.505 553.483 213.471 544.193C204.436 534.818 199.962 522.972 200.047 508.653C199.962 496.551 203.243 486.068 209.891 477.205C216.624 468.256 225.956 461.352 237.888 456.494C249.905 451.551 263.755 449.08 279.436 449.08C302.448 449.08 320.559 453.98 333.769 463.781C347.064 473.582 355.289 486.835 358.442 503.54ZM400.821 721.636V451.636H446.333V484.108H449.017C451.404 479.335 454.77 474.264 459.117 468.895C463.463 463.44 469.344 458.795 476.759 454.96C484.174 451.04 493.634 449.08 505.14 449.08C520.31 449.08 533.989 452.957 546.176 460.713C558.449 468.384 568.165 479.761 575.324 494.847C582.569 509.847 586.191 528.256 586.191 550.074C586.191 571.636 582.654 589.96 575.58 605.045C568.506 620.131 558.875 631.636 546.688 639.562C534.5 647.489 520.694 651.452 505.267 651.452C494.017 651.452 484.685 649.577 477.27 645.827C469.855 642.077 463.89 637.56 459.373 632.276C454.941 626.906 451.489 621.835 449.017 617.062H447.1V721.636H400.821ZM446.205 549.818C446.205 562.517 447.995 573.639 451.574 583.185C455.239 592.73 460.48 600.187 467.299 605.557C474.202 610.841 482.554 613.483 492.355 613.483C502.583 613.483 511.148 610.756 518.051 605.301C524.955 599.761 530.154 592.219 533.648 582.673C537.228 573.043 539.017 562.091 539.017 549.818C539.017 537.631 537.27 526.807 533.776 517.347C530.282 507.886 525.083 500.472 518.179 495.102C511.276 489.733 502.668 487.048 492.355 487.048C482.469 487.048 474.074 489.648 467.171 494.847C460.267 500.045 455.026 507.332 451.446 516.707C447.952 526.082 446.205 537.119 446.205 549.818ZM723.875 451.636V487.432H610.992V451.636H723.875ZM638.861 404.591H685.14V588.938C685.14 595.159 686.077 599.932 687.952 603.256C689.912 606.494 692.469 608.71 695.623 609.903C698.776 611.097 702.27 611.693 706.105 611.693C709.003 611.693 711.645 611.48 714.032 611.054C716.503 610.628 718.378 610.244 719.657 609.903L727.455 646.082C724.983 646.935 721.446 647.872 716.844 648.895C712.327 649.918 706.787 650.514 700.225 650.685C688.634 651.026 678.194 649.278 668.904 645.443C659.614 641.523 652.242 635.472 646.787 627.29C641.418 619.108 638.776 608.881 638.861 596.608V404.591ZM762.579 648V451.636H807.451V484.364H809.497C813.076 473.028 819.213 464.293 827.906 458.156C836.684 451.935 846.699 448.824 857.949 448.824C860.505 448.824 863.36 448.952 866.514 449.207C869.752 449.378 872.437 449.676 874.568 450.102V492.673C872.608 491.991 869.497 491.395 865.235 490.884C861.059 490.287 857.011 489.989 853.091 489.989C844.653 489.989 837.068 491.821 830.335 495.486C823.687 499.065 818.446 504.051 814.61 510.443C810.775 516.835 808.858 524.207 808.858 532.56V648H762.579Z" fill="black"/>
</g>
<defs>
<clipPath id="clip0_19_7">
<rect width="1073" height="1073" rx="40" fill="white"/>
</clipPath>
</defs>
</svg>
